<svg width="30" height="30" viewBox="0 0 30 30" fill="none" xmlns="http://www.w3.org/2000/svg">
<path id="Star 1" d="M13.4689 2.0584C13.9862 0.466231 16.2387 0.466231 16.756 2.0584L19.0538 9.13033C19.2852 9.84237 19.9487 10.3245 20.6974 10.3245L28.1333 10.3245C29.8074 10.3245 30.5034 12.4667 29.149 13.4507L23.1333 17.8214C22.5276 18.2615 22.2742 19.0415 22.5055 19.7535L24.8033 26.8255C25.3206 28.4177 23.4983 29.7416 22.144 28.7576L16.1282 24.3869C15.5225 23.9469 14.7023 23.9469 14.0967 24.3869L8.08091 28.7576C6.72653 29.7416 4.90422 28.4177 5.42155 26.8255L7.71936 19.7535C7.95072 19.0415 7.69727 18.2615 7.09157 17.8214L1.07583 13.4507C-0.278553 12.4667 0.417506 10.3245 2.09161 10.3245L9.52748 10.3245C10.2762 10.3245 10.9397 9.84237 11.1711 9.13033L13.4689 2.0584Z" fill="#FFB545"/>
</svg>
